<svg xmlns="http://www.w3.org/2000/svg" width="720" height="520" viewBox="0 0 720 520"><rect width="720" height="520" rx="34" fill="#071d27"/><text x="40" y="52" fill="#dff7fb" font-family="Arial" font-size="28" font-weight="700">EHEIM Professionel 4+ 250 · Paso 4</text><text x="40" y="86" fill="#86aebc" font-family="Arial" font-size="20">Retira y limpia primero el PREFILTRO</text><rect x="178" y="116" width="364" height="328" rx="32" fill="#132f3a" stroke="#6f99a7" stroke-width="5"/><rect x="232" y="137" width="256" height="66" rx="18" fill="#213f49" stroke="#87b2c0" stroke-width="3"/><text x="360" y="178" text-anchor="middle" fill="#d8edf2" font-family="Arial" font-size="22">CABEZAL / MOTOR</text><rect x="225" y="220" width="270" height="78" rx="18" fill="#ffcc4d" stroke="#fff0a6" stroke-width="7"/><text x="360" y="267" text-anchor="middle" fill="#13222a" font-family="Arial" font-size="30" font-weight="800">PREFILTRO</text><rect x="225" y="312" width="270" height="52" rx="14" fill="#244653"/><text x="360" y="345" text-anchor="middle" fill="#bcd3dc" font-family="Arial" font-size="19">CESTA BIOLÓGICA 1</text><rect x="225" y="375" width="270" height="52" rx="14" fill="#244653"/><text x="360" y="408" text-anchor="middle" fill="#bcd3dc" font-family="Arial" font-size="19">CESTA BIOLÓGICA 2</text><path d="M570 257 C625 257 630 205 665 205" fill="none" stroke="#ffcc4d" stroke-width="8" stroke-linecap="round"/><path d="M651 193 L676 205 L651 217" fill="#ffcc4d"/><text x="548" y="173" fill="#ffdf7a" font-family="Arial" font-size="20" font-weight="700">ESTA PIEZA</text><text x="40" y="480" fill="#9bb8c2" font-family="Arial" font-size="18">No necesitas desmontar todas las cestas para localizar el prefiltro.</text></svg>